<svg width="1080" height="1080" viewBox="0 0 1080 1080" fill="none" xmlns="http://www.w3.org/2000/svg">
  <path d="M540 77C563.196 77 582 95.8041 582 119V161C582 184.196 563.196 203 540 203C516.804 203 498 184.196 498 161V119C498 95.8041 516.804 77 540 77Z" fill="#E55A5A"/>
  <path d="M540 119C563.196 119 582 137.804 582 161V203C582 226.196 563.196 245 540 245C516.804 245 498 226.196 498 203V161C498 137.804 516.804 119 540 119Z" fill="#E55A5A"/>
  <ellipse cx="519" cy="140" rx="21" ry="21" fill="white"/>
  <ellipse cx="561" cy="140" rx="21" ry="21" fill="white"/>
  <path d="M540 203V287" stroke="#E55A5A" stroke-width="42"/>
  <path d="M498 245C498 268.196 516.804 287 540 287C563.196 287 582 268.196 582 245" stroke="#E55A5A" stroke-width="42" stroke-linecap="round"/>
  <ellipse cx="456" cy="266" rx="42" ry="21" fill="#E55A5A"/>
  <ellipse cx="624" cy="266" rx="42" ry="21" fill="#E55A5A"/>
  <ellipse cx="456" cy="266" rx="21" ry="10.5" fill="white"/>
  <ellipse cx="624" cy="266" rx="21" ry="10.5" fill="white"/>
  
  <!-- Mandala root pattern -->
  <g transform="translate(540,540)">
    <!-- Center circle -->
    <circle cx="0" cy="0" r="42" fill="#E55A5A"/>
    
    <!-- Main branches (8 directions) -->
    <g stroke="#E55A5A" stroke-width="21" fill="none">
      <!-- North -->
      <path d="M0,-42 Q0,-84 -21,-105 Q-42,-126 -63,-105 Q-84,-84 -63,-63 Q-42,-42 -21,-63 Q0,-84 21,-63 Q42,-42 63,-63 Q84,-84 63,-105 Q42,-126 21,-105 Q0,-84 0,-42"/>
      <!-- Northeast -->
      <path d="M30,-30 Q60,-60 39,-81 Q18,-102 39,-123 Q60,-144 81,-123 Q102,-102 81,-81 Q60,-60 81,-39 Q102,-18 81,3 Q60,24 39,3 Q18,-18 39,-39 Q60,-60 30,-30"/>
      <!-- East -->
      <path d="M42,0 Q84,0 105,-21 Q126,-42 105,-63 Q84,-84 63,-63 Q42,-42 63,-21 Q84,0 63,21 Q42,42 63,63 Q84,84 105,63 Q126,42 105,21 Q84,0 42,0"/>
      <!-- Southeast -->
      <path d="M30,30 Q60,60 39,81 Q18,102 39,123 Q60,144 81,123 Q102,102 81,81 Q60,60 81,39 Q102,18 81,-3 Q60,-24 39,-3 Q18,18 39,39 Q60,60 30,30"/>
      <!-- South -->
      <path d="M0,42 Q0,84 -21,105 Q-42,126 -63,105 Q-84,84 -63,63 Q-42,42 -21,63 Q0,84 21,63 Q42,42 63,63 Q84,84 63,105 Q42,126 21,105 Q0,84 0,42"/>
      <!-- Southwest -->
      <path d="M-30,30 Q-60,60 -39,81 Q-18,102 -39,123 Q-60,144 -81,123 Q-102,102 -81,81 Q-60,60 -81,39 Q-102,18 -81,-3 Q-60,-24 -39,-3 Q-18,18 -39,39 Q-60,60 -30,30"/>
      <!-- West -->
      <path d="M-42,0 Q-84,0 -105,-21 Q-126,-42 -105,-63 Q-84,-84 -63,-63 Q-42,-42 -63,-21 Q-84,0 -63,21 Q-42,42 -63,63 Q-84,84 -105,63 Q-126,42 -105,21 Q-84,0 -42,0"/>
      <!-- Northwest -->
      <path d="M-30,-30 Q-60,-60 -39,-81 Q-18,-102 -39,-123 Q-60,-144 -81,-123 Q-102,-102 -81,-81 Q-60,-60 -81,-39 Q-102,-18 -81,3 Q-60,24 -39,3 Q-18,-18 -39,-39 Q-60,-60 -30,-30"/>
    </g>
    
    <!-- Secondary branches -->
    <g stroke="#E55A5A" stroke-width="14" fill="none">
      <!-- Between main branches -->
      <path d="M21,-21 Q42,-42 63,-21 Q84,0 63,21 Q42,42 21,21 Q0,42 -21,21 Q-42,42 -21,63 Q0,84 21,63 Q42,84 63,63 Q84,42 105,63 Q126,84 105,105"/>
      <path d="M21,21 Q42,42 63,21 Q84,0 63,-21 Q42,-42 21,-21 Q0,-42 -21,-21 Q-42,-42 -21,-63 Q0,-84 21,-63 Q42,-84 63,-63 Q84,-42 105,-63 Q126,-84 105,-105"/>
      <path d="M-21,21 Q-42,42 -63,21 Q-84,0 -63,-21 Q-42,-42 -21,-21 Q0,-42 21,-21 Q42,-42 21,-63 Q0,-84 -21,-63 Q-42,-84 -63,-63 Q-84,-42 -105,-63 Q-126,-84 -105,-105"/>
      <path d="M-21,-21 Q-42,-42 -63,-21 Q-84,0 -63,21 Q-42,42 -21,21 Q0,42 21,21 Q42,42 21,63 Q0,84 -21,63 Q-42,84 -63,63 Q-84,42 -105,63 Q-126,84 -105,105"/>
    </g>
    
    <!-- Outer ring details -->
    <g stroke="#E55A5A" stroke-width="10" fill="none">
      <!-- Detailed root patterns -->
      <path d="M0,-126 Q-21,-147 -42,-126 Q-63,-105 -84,-126 Q-105,-147 -126,-126 Q-147,-105 -168,-126 Q-189,-147 -210,-126"/>
      <path d="M126,0 Q147,-21 126,-42 Q105,-63 126,-84 Q147,-105 126,-126 Q105,-147 126,-168 Q147,-189 126,-210"/>
      <path d="M0,126 Q21,147 42,126 Q63,105 84,126 Q105,147 126,126 Q147,105 168,126 Q189,147 210,126"/>
      <path d="M-126,0 Q-147,21 -126,42 Q-105,63 -126,84 Q-147,105 -126,126 Q-105,147 -126,168 Q-147,189 -126,210"/>
    </g>
  </g>
</svg>