<svg width="1080" height="1080" viewBox="0 0 1080 1080" fill="none" xmlns="http://www.w3.org/2000/svg">
  <!-- Flower at top -->
  <g transform="translate(540,200)">
    <circle cx="0" cy="0" r="60" fill="#E55A5A"/>
    <ellipse cx="-30" cy="-15" rx="25" ry="15" fill="white"/>
    <ellipse cx="30" cy="-15" rx="25" ry="15" fill="white"/>
    <circle cx="0" cy="15" r="8" fill="white"/>
  </g>
  
  <!-- Stem -->
  <rect x="520" y="260" width="40" height="120" fill="#E55A5A"/>
  
  <!-- Leaves -->
  <g transform="translate(540,320)">
    <ellipse cx="-80" cy="0" rx="60" ry="30" fill="#E55A5A"/>
    <ellipse cx="80" cy="0" rx="60" ry="30" fill="#E55A5A"/>
    <ellipse cx="-80" cy="0" rx="30" ry="15" fill="white"/>
    <ellipse cx="80" cy="0" rx="30" ry="15" fill="white"/>
  </g>
  
  <!-- Mandala root pattern -->
  <g transform="translate(540,650)">
    <!-- Center circle -->
    <circle cx="0" cy="0" r="50" fill="#E55A5A"/>
    
    <!-- Main branches radiating outward -->
    <g stroke="#E55A5A" stroke-width="25" fill="none" stroke-linecap="round">
      <!-- Primary branches (8 directions) -->
      <path d="M0,-50 C-30,-80 -60,-100 -90,-120 C-120,-140 -150,-160 -180,-180"/>
      <path d="M35,-35 C65,-65 95,-85 125,-105 C155,-125 185,-145 215,-165"/>
      <path d="M50,0 C80,-20 110,-30 140,-40 C170,-50 200,-60 230,-70"/>
      <path d="M35,35 C65,65 95,85 125,105 C155,125 185,145 215,165"/>
      <path d="M0,50 C-30,80 -60,100 -90,120 C-120,140 -150,160 -180,180"/>
      <path d="M-35,35 C-65,65 -95,85 -125,105 C-155,125 -185,145 -215,165"/>
      <path d="M-50,0 C-80,-20 -110,-30 -140,-40 C-170,-50 -200,-60 -230,-70"/>
      <path d="M-35,-35 C-65,-65 -95,-85 -125,-105 C-155,-125 -185,-145 -215,-165"/>
      
      <!-- Secondary branches -->
      <path d="M-25,-43 C-45,-73 -65,-93 -85,-113 C-105,-133 -125,-153 -145,-173"/>
      <path d="M43,-25 C73,-45 93,-65 113,-85 C133,-105 153,-125 173,-145"/>
      <path d="M43,25 C73,45 93,65 113,85 C133,105 153,125 173,145"/>
      <path d="M25,43 C45,73 65,93 85,113 C105,133 125,153 145,173"/>
      <path d="M-25,43 C-45,73 -65,93 -85,113 C-105,133 -125,153 -145,173"/>
      <path d="M-43,25 C-73,45 -93,65 -113,85 C-133,105 -153,125 -173,145"/>
      <path d="M-43,-25 C-73,-45 -93,-65 -113,-85 C-133,-105 -153,-125 -173,-145"/>
      <path d="M25,-43 C45,-73 65,-93 85,-113 C105,-133 125,-153 145,-173"/>
    </g>
    
    <!-- Tertiary fine branches -->
    <g stroke="#E55A5A" stroke-width="15" fill="none" stroke-linecap="round">
      <!-- Fine root details -->
      <path d="M-90,-120 C-110,-140 -130,-150 -150,-160 C-170,-170 -190,-180 -210,-190"/>
      <path d="M-70,-130 C-90,-150 -110,-160 -130,-170 C-150,-180 -170,-190 -190,-200"/>
      <path d="M125,-105 C145,-125 165,-135 185,-145 C205,-155 225,-165 245,-175"/>
      <path d="M135,-95 C155,-115 175,-125 195,-135 C215,-145 235,-155 255,-165"/>
      <path d="M140,-40 C160,-50 180,-55 200,-60 C220,-65 240,-70 260,-75"/>
      <path d="M130,-50 C150,-60 170,-65 190,-70 C210,-75 230,-80 250,-85"/>
      <path d="M125,105 C145,125 165,135 185,145 C205,155 225,165 245,175"/>
      <path d="M135,95 C155,115 175,125 195,135 C215,145 235,155 255,165"/>
      <path d="M-90,120 C-110,140 -130,150 -150,160 C-170,170 -190,180 -210,190"/>
      <path d="M-70,130 C-90,150 -110,160 -130,170 C-150,180 -170,190 -190,200"/>
      <path d="M-125,105 C-145,125 -165,135 -185,145 C-205,155 -225,165 -245,175"/>
      <path d="M-135,95 C-155,115 -175,125 -195,135 C-215,145 -235,155 -255,165"/>
      <path d="M-140,-40 C-160,-50 -180,-55 -200,-60 C-220,-65 -240,-70 -260,-75"/>
      <path d="M-130,-50 C-150,-60 -170,-65 -190,-70 C-210,-75 -230,-80 -250,-85"/>
      <path d="M-125,-105 C-145,-125 -165,-135 -185,-145 C-205,-155 -225,-165 -245,-175"/>
      <path d="M-135,-95 C-155,-115 -175,-125 -195,-135 C-215,-145 -235,-155 -255,-165"/>
    </g>
  </g>
</svg>